<?xml version="1.0" encoding="UTF-8"?>
<svg xmlns="http://www.w3.org/2000/svg" xmlns:xlink="http://www.w3.org/1999/xlink" width="291.92pt" height="59.35pt" viewBox="0 0 291.92 59.35" version="1.1">
<defs>
<clipPath id="clip1">
  <path d="M 0 0 L 291.921875 0 L 291.921875 44 L 0 44 Z M 0 0 "/>
</clipPath>
<clipPath id="clip2">
  <path d="M 221 45 L 230 45 L 230 59.351563 L 221 59.351563 Z M 221 45 "/>
</clipPath>
<clipPath id="clip3">
  <path d="M 230 45 L 239 45 L 239 59.351563 L 230 59.351563 Z M 230 45 "/>
</clipPath>
<clipPath id="clip4">
  <path d="M 244 45 L 257 45 L 257 59.351563 L 244 59.351563 Z M 244 45 "/>
</clipPath>
<clipPath id="clip5">
  <path d="M 258 45 L 272 45 L 272 59.351563 L 258 59.351563 Z M 258 45 "/>
</clipPath>
</defs>
<g id="surface1">
<g clip-path="url(#clip1)" clip-rule="nonzero">
<path style=" stroke:none;fill-rule:nonzero;fill:rgb(13.699341%,12.199402%,12.5%);fill-opacity:1;" d="M 49.253906 30.058594 C 44.632813 30.058594 41.402344 26.773438 41.402344 21.988281 C 41.402344 17.535156 44.410156 13.804688 49.253906 13.804688 C 54.09375 13.804688 57.101563 17.535156 57.101563 21.988281 C 57.101563 26.773438 53.871094 30.058594 49.253906 30.058594 Z M 96.609375 13.246094 C 96.609375 16.808594 97.28125 20.429688 97.890625 23.933594 L 97.445313 23.933594 L 83.753906 0.667969 L 69.109375 0.667969 L 69.109375 10.046875 C 65.035156 3.734375 57.648438 0 49.253906 0 C 42.453125 0 36.324219 2.457031 32.066406 6.734375 L 32.066406 0.667969 L 0 0.667969 L 0 14.304688 L 8.40625 13.914063 L 8.40625 42.640625 L 23.65625 42.640625 L 23.65625 13.914063 L 27.382813 14.089844 C 26.527344 16.421875 26.039063 18.984375 26.039063 21.765625 C 26.039063 35.238281 36.449219 43.308594 49.253906 43.308594 C 57.675781 43.308594 65.042969 39.792969 69.109375 33.566406 L 69.109375 42.640625 L 83.695313 42.640625 L 83.695313 29 C 83.695313 26.21875 83.25 23.488281 82.75 20.59375 L 83.195313 20.59375 L 96.609375 42.640625 L 111.195313 42.640625 L 111.195313 0.667969 L 96.609375 0.667969 Z M 209.113281 17.921875 L 189.085938 17.921875 L 189.085938 27.832031 L 195.988281 27.832031 C 195.265625 30.394531 192.203125 31.507813 189.808594 31.507813 C 184.855469 31.507813 181.960938 27.164063 181.960938 22.542969 C 181.960938 17.476563 184.964844 12.800781 190.421875 12.800781 C 192.871094 12.800781 195.042969 13.914063 196.210938 16.03125 L 209.113281 11.292969 Z M 147.199219 15.140625 C 146.199219 14.582031 145.140625 13.023438 145.140625 11.855469 C 145.140625 10.351563 146.253906 9.128906 147.8125 9.128906 C 149.035156 9.128906 150.09375 10.351563 150.09375 11.578125 C 150.09375 13.136719 148.480469 14.417969 147.199219 15.140625 Z M 143.023438 32.84375 C 141.019531 32.84375 139.238281 31.839844 139.238281 29.667969 C 139.238281 28.109375 140.574219 27.21875 141.746094 26.441406 L 147.03125 31.726563 C 145.695313 32.285156 144.585938 32.84375 143.023438 32.84375 Z M 286.195313 0.667969 L 269.050781 0.667969 L 266.042969 7.679688 C 265.484375 8.960938 265.097656 10.296875 264.652344 11.632813 L 264.207031 11.632813 L 259.53125 0.667969 L 232.714844 0.667969 L 232.714844 24.046875 C 232.714844 27.332031 232.601563 30.226563 228.539063 30.226563 C 224.476563 30.226563 224.363281 27.332031 224.363281 24.046875 L 224.363281 0.667969 L 209.113281 0.667969 L 209.113281 8.53125 C 204.960938 2.859375 196.34375 0 189.867188 0 C 176.671875 0 166.597656 8.238281 166.597656 21.929688 C 166.597656 22.03125 166.609375 22.125 166.609375 22.222656 L 164.289063 19.59375 C 162.339844 21.875 160.390625 24.269531 157.832031 25.941406 L 154.046875 22.097656 C 158.667969 20.707031 162.230469 16.53125 162.230469 11.632813 C 162.230469 3.785156 153.601563 0 146.867188 0 C 139.738281 0 131.390625 3.449219 131.390625 11.742188 C 131.390625 15.140625 133.117188 17.367188 135.511719 19.59375 C 132.5 20.171875 129.648438 21.402344 127.675781 23.398438 L 127.675781 0.667969 L 112.421875 0.667969 L 112.421875 42.640625 L 127.675781 42.640625 L 127.675781 37.898438 C 130.839844 41.6875 136.359375 43.308594 141.800781 43.308594 C 146.867188 43.308594 150.816406 42.25 155.046875 39.46875 L 157.832031 42.640625 L 175.367188 42.640625 L 165.679688 33.566406 L 168.617188 31.351563 C 172.226563 39.003906 180.316406 43.308594 189.753906 43.308594 C 196.269531 43.308594 203.117188 40.691406 207.566406 35.847656 C 208.632813 34.699219 209.460938 33.527344 210.117188 32.332031 C 212.546875 39.820313 219.265625 43.308594 228.539063 43.308594 C 240.285156 43.308594 247.96875 37.742188 247.96875 25.492188 L 247.96875 9.953125 L 256.914063 24.546875 L 256.914063 42.640625 L 271.835938 42.640625 L 271.835938 24.546875 L 285.773438 1.371094 L 286.527344 1.371094 L 286.527344 3.621094 L 287.382813 3.621094 L 287.382813 1.371094 L 288.179688 1.371094 L 288.179688 0.671875 L 286.191406 0.671875 Z M 290.796875 0.671875 L 290.199219 2.375 L 290.183594 2.375 L 289.585938 0.671875 L 288.460938 0.671875 L 288.460938 3.621094 L 289.160156 3.621094 L 289.160156 1.371094 L 289.171875 1.371094 L 289.976563 3.621094 L 290.40625 3.621094 L 291.210938 1.371094 L 291.226563 1.371094 L 291.226563 3.621094 L 291.925781 3.621094 L 291.925781 0.671875 L 290.796875 0.671875 "/>
</g>
<path style=" stroke:none;fill-rule:nonzero;fill:rgb(13.699341%,12.199402%,12.5%);fill-opacity:1;" d="M 166.484375 51.359375 L 166.484375 45.785156 L 167.320313 45.785156 L 167.320313 58.914063 L 166.484375 58.914063 L 166.484375 52.140625 L 158.507813 52.140625 L 158.507813 58.914063 L 157.671875 58.914063 L 157.671875 45.785156 L 158.507813 45.785156 L 158.507813 51.359375 L 166.484375 51.359375 "/>
<path style=" stroke:none;fill-rule:nonzero;fill:rgb(13.699341%,12.199402%,12.5%);fill-opacity:1;" d="M 171.429688 54.597656 L 169.671875 58.914063 L 168.816406 58.914063 L 174.320313 45.351563 L 179.804688 58.914063 L 178.949219 58.914063 L 177.191406 54.597656 Z M 174.320313 47.472656 L 171.742188 53.8125 L 176.878906 53.8125 L 174.320313 47.472656 "/>
<path style=" stroke:none;fill-rule:nonzero;fill:rgb(13.699341%,12.199402%,12.5%);fill-opacity:1;" d="M 181.300781 58.914063 L 182.136719 58.914063 L 182.136719 45.785156 L 181.300781 45.785156 Z M 181.300781 58.914063 "/>
<path style=" stroke:none;fill-rule:nonzero;fill:rgb(13.699341%,12.199402%,12.5%);fill-opacity:1;" d="M 191.453125 58.914063 L 190.496094 58.914063 L 186.210938 52.699219 L 185.792969 52.699219 L 185.792969 58.914063 L 184.957031 58.914063 L 184.957031 45.785156 L 186.59375 45.785156 C 187.65625 45.785156 188.703125 45.804688 189.589844 46.449219 C 190.53125 47.109375 190.914063 48.152344 190.914063 49.269531 C 190.914063 51.550781 189.328125 52.734375 187.152344 52.699219 Z M 186.855469 51.914063 C 187.675781 51.914063 188.492188 51.878906 189.15625 51.304688 C 189.78125 50.800781 190.078125 50.015625 190.078125 49.234375 C 190.078125 48.257813 189.625 47.28125 188.683594 46.863281 C 187.988281 46.535156 187.101563 46.570313 186.335938 46.570313 L 185.792969 46.570313 L 185.792969 51.914063 L 186.855469 51.914063 "/>
<path style=" stroke:none;fill-rule:nonzero;fill:rgb(13.699341%,12.199402%,12.5%);fill-opacity:1;" d="M 193.457031 45.785156 L 195.824219 45.785156 C 197.738281 45.785156 199.253906 46.097656 200.699219 47.441406 C 202.074219 48.726563 202.789063 50.488281 202.789063 52.367188 C 202.789063 54.179688 202.09375 55.902344 200.769531 57.175781 C 199.324219 58.566406 197.773438 58.914063 195.824219 58.914063 L 193.457031 58.914063 Z M 195.804688 58.132813 C 197.53125 58.132813 198.957031 57.785156 200.210938 56.546875 C 201.328125 55.433594 201.953125 53.933594 201.953125 52.367188 C 201.953125 50.695313 201.292969 49.128906 200.054688 47.996094 C 198.800781 46.863281 197.445313 46.570313 195.804688 46.570313 L 194.292969 46.570313 L 194.292969 58.132813 L 195.804688 58.132813 "/>
<path style=" stroke:none;fill-rule:nonzero;fill:rgb(13.699341%,12.199402%,12.5%);fill-opacity:1;" d="M 211.304688 58.914063 L 210.347656 58.914063 L 206.0625 52.699219 L 205.644531 52.699219 L 205.644531 58.914063 L 204.808594 58.914063 L 204.808594 45.785156 L 206.445313 45.785156 C 207.507813 45.785156 208.554688 45.804688 209.441406 46.449219 C 210.382813 47.109375 210.765625 48.152344 210.765625 49.269531 C 210.765625 51.550781 209.179688 52.734375 207.003906 52.699219 Z M 206.707031 51.914063 C 207.527344 51.914063 208.34375 51.878906 209.007813 51.304688 C 209.632813 50.800781 209.929688 50.015625 209.929688 49.234375 C 209.929688 48.257813 209.476563 47.28125 208.535156 46.863281 C 207.839844 46.535156 206.949219 46.570313 206.183594 46.570313 L 205.644531 46.570313 L 205.644531 51.914063 L 206.707031 51.914063 "/>
<path style=" stroke:none;fill-rule:nonzero;fill:rgb(13.699341%,12.199402%,12.5%);fill-opacity:1;" d="M 214.144531 46.570313 L 214.144531 51.339844 L 219.4375 51.339844 L 219.4375 52.125 L 214.144531 52.125 L 214.144531 58.132813 L 219.574219 58.132813 L 219.574219 58.914063 L 213.308594 58.914063 L 213.308594 45.785156 L 219.574219 45.785156 L 219.574219 46.570313 L 214.144531 46.570313 "/>
<g clip-path="url(#clip2)" clip-rule="nonzero">
<path style=" stroke:none;fill-rule:nonzero;fill:rgb(13.699341%,12.199402%,12.5%);fill-opacity:1;" d="M 228.210938 47.945313 C 227.621094 47.003906 226.785156 46.394531 225.546875 46.394531 C 224.136719 46.394531 223.074219 47.527344 223.074219 48.902344 C 223.074219 50.277344 224.382813 50.851563 225.445313 51.359375 L 227.949219 52.664063 C 228.945313 53.289063 229.449219 54.089844 229.449219 55.277344 C 229.449219 57.453125 227.464844 59.089844 225.339844 59.089844 C 223.511719 59.089844 222.082031 57.957031 221.472656 56.269531 L 222.203125 55.9375 C 222.761719 57.332031 223.789063 58.304688 225.375 58.304688 C 227.097656 58.304688 228.613281 56.949219 228.613281 55.207031 C 228.613281 53.726563 227.097656 53.097656 225.964844 52.542969 L 223.597656 51.289063 C 222.726563 50.75 222.238281 49.980469 222.238281 48.9375 C 222.238281 46.988281 223.632813 45.609375 225.601563 45.609375 C 226.921875 45.609375 228.175781 46.324219 228.804688 47.457031 L 228.210938 47.945313 "/>
</g>
<g clip-path="url(#clip3)" clip-rule="nonzero">
<path style=" stroke:none;fill-rule:nonzero;fill:rgb(13.699341%,12.199402%,12.5%);fill-opacity:1;" d="M 237.683594 47.945313 C 237.09375 47.003906 236.257813 46.394531 235.019531 46.394531 C 233.609375 46.394531 232.546875 47.527344 232.546875 48.902344 C 232.546875 50.277344 233.855469 50.851563 234.917969 51.359375 L 237.421875 52.664063 C 238.417969 53.289063 238.921875 54.089844 238.921875 55.277344 C 238.921875 57.453125 236.9375 59.089844 234.8125 59.089844 C 232.984375 59.089844 231.554688 57.957031 230.945313 56.269531 L 231.675781 55.9375 C 232.234375 57.332031 233.261719 58.304688 234.847656 58.304688 C 236.570313 58.304688 238.085938 56.949219 238.085938 55.207031 C 238.085938 53.726563 236.570313 53.097656 235.4375 52.542969 L 233.070313 51.289063 C 232.199219 50.75 231.710938 49.980469 231.710938 48.9375 C 231.710938 46.988281 233.105469 45.609375 235.074219 45.609375 C 236.394531 45.609375 237.652344 46.324219 238.277344 47.457031 L 237.683594 47.945313 "/>
</g>
<path style=" stroke:none;fill-rule:nonzero;fill:rgb(13.699341%,12.199402%,12.5%);fill-opacity:1;" d="M 241.082031 58.914063 L 241.917969 58.914063 L 241.917969 45.785156 L 241.082031 45.785156 Z M 241.082031 58.914063 "/>
<g clip-path="url(#clip4)" clip-rule="nonzero">
<path style=" stroke:none;fill-rule:nonzero;fill:rgb(13.699341%,12.199402%,12.5%);fill-opacity:1;" d="M 256.597656 59.351563 L 245.574219 47.632813 L 245.574219 58.914063 L 244.738281 58.914063 L 244.738281 45.609375 L 255.757813 57.242188 L 255.757813 45.785156 L 256.597656 45.785156 L 256.597656 59.351563 "/>
</g>
<g clip-path="url(#clip5)" clip-rule="nonzero">
<path style=" stroke:none;fill-rule:nonzero;fill:rgb(13.699341%,12.199402%,12.5%);fill-opacity:1;" d="M 271.726563 52.59375 C 271.761719 54.25 271.519531 55.695313 270.351563 56.964844 C 269.097656 58.324219 267.21875 59.089844 265.371094 59.089844 C 261.734375 59.089844 258.632813 56.023438 258.632813 52.402344 C 258.632813 48.640625 261.714844 45.609375 265.476563 45.609375 C 267.863281 45.609375 269.792969 46.796875 271.167969 48.675781 L 270.492188 49.214844 C 269.324219 47.472656 267.546875 46.394531 265.425781 46.394531 C 262.21875 46.394531 259.46875 49.199219 259.46875 52.351563 C 259.46875 55.589844 262.148438 58.304688 265.425781 58.304688 C 266.835938 58.304688 268.210938 57.730469 269.289063 56.859375 C 270.421875 55.902344 270.839844 54.804688 270.890625 53.378906 L 266.191406 53.378906 L 266.191406 52.59375 L 271.726563 52.59375 "/>
</g>
</g>
</svg>
