<?xml version="1.0" encoding="utf-8"?>
<!-- Generator: Adobe Illustrator 19.2.1, SVG Export Plug-In . SVG Version: 6.00 Build 0)  -->
<svg version="1.1" id="layer" xmlns="http://www.w3.org/2000/svg" xmlns:xlink="http://www.w3.org/1999/xlink" x="0px" y="0px"
	 viewBox="0 0 652 652" style="enable-background:new 0 0 652 652;" xml:space="preserve">
<style type="text/css">
	.st0{fill:#000;}
</style>
<path class="st0" d="M132.8,290.5h23.4l-9.2-35.9c-0.8-3.4-1.7-4.9-2.4-5.6c-1.3-1.3-2.5-1.8-4.5-1.9c-2,0-3.2,0.6-4.5,1.9
	c-0.7,0.7-1.6,2.2-2.4,5.6l-17.7,70h-10.9l18.3-72.1c1.3-5.2,3.1-8.6,5.3-10.9c3.1-3.3,7.3-5,11.9-5.1h0c4.6,0,8.8,1.8,12,5.1
	c2.2,2.3,4,5.6,5.4,10.9l18.3,72.1h-11.2l-6.1-24.2h-28.1L132.8,290.5L132.8,290.5z M565.4,249.7v75h-9.7l0-78.2
	c0-4.1,2.5-9.3,8.7-9.3c4.1,0,6.5,1.9,8.5,5.6c-0.1-0.1,30.7,57.6,37.4,70.2v0c0-13.9,0-75.1,0-75.1h9.7v77.7c0,6-3.2,9.9-8.9,9.9
	c-3.3,0-5.9-1.4-8.2-5.6C603,320,572.3,262.7,565.4,249.7L565.4,249.7L565.4,249.7z M48.9,238h33v9.9H45.3
	c-12.6,0-14.3,7.7-14.3,11.1c0,2.7,0.7,7.3,8.3,10.5l29.7,11.7c13.4,5.3,16.4,13.3,16.4,21.6c0,6-2.5,11.6-7.2,15.8
	c-5.8,5.2-13.1,6.1-21.3,6.1H21.2v-10.3H57c8.3,0,11.1-1.3,13.7-3.7c1.7-1.5,3.7-4.1,3.7-7.9c0-4.8-2.4-9.1-8.6-11.5L35,279.2
	c-13-5-15-14.1-15-20.1c0-5.8,2.8-11.2,7.5-15.2C33.3,238.9,40.1,238,48.9,238z M224.7,238h33v9.9h-36.6c-12.6,0-14.3,7.7-14.3,11.1
	c0,2.7,0.7,7.3,8.3,10.5l29.8,11.7c13.3,5.3,16.4,13.3,16.4,21.6c0,6-2.5,11.6-7.2,15.8c-5.8,5.2-13.1,6.1-21.3,6.1h-35.8v-10.3
	h35.8c8.3,0,11.1-1.3,13.7-3.7c1.7-1.5,3.7-4.1,3.7-7.9c0-4.8-2.4-9.1-8.6-11.5l-30.9-12.2c-13-5-15-14.1-15-20.1
	c0-5.8,2.8-11.2,7.5-15.2C209.1,238.9,215.9,238,224.7,238L224.7,238z M311.7,238h33v9.9h-36.6c-12.6,0-14.3,7.7-14.3,11.1
	c0,2.7,0.7,7.3,8.3,10.5l29.7,11.7c13.4,5.3,16.4,13.3,16.4,21.6c0,6-2.5,11.6-7.2,15.8c-5.8,5.2-13.1,6.1-21.3,6.1h-35.7v-10.3
	h35.7c8.3,0,11.1-1.3,13.8-3.7c1.7-1.5,3.7-4.1,3.7-7.9c0-4.8-2.5-9.1-8.6-11.5l-30.9-12.2c-13-5-14.9-14.1-14.9-20.1
	c0-5.8,2.8-11.2,7.5-15.2C296.2,238.9,303,238,311.7,238z M408.4,316.2c9-1.4,16.9-8,16.9-19.6v-30.3c0-13.2-10.1-20-20.5-20h0
	c-10.7,0-20.5,6.8-20.5,20v30.3c0,11.5,7.5,18.1,16.5,19.6l0,9.7c-15.9-1.7-27-14.6-27-29.3v-30.4c0-15.9,12.8-29.4,31-29.4
	c18.3,0,31,13.5,31,29.1v30.9c0,14.6-11.2,27.4-27.3,29.1L408.4,316.2L408.4,316.2z M497.4,316.2c9-1.4,16.8-8,16.8-19.6v-30.3
	c0-13.2-10.1-20-20.5-20h0c-10.7,0-20.5,6.8-20.5,20v30.3c0,11.5,7.5,18.1,16.5,19.6l0,9.7c-15.9-1.7-27.1-14.6-27.1-29.3v-30.4
	c0-15.9,12.8-29.4,31-29.4c18.2,0,31,13.5,31,29.1v30.9c0,14.6-11.2,27.4-27.3,29.1L497.4,316.2L497.4,316.2z M422.8,362.7l-12,26.2
	c-1.4,2.8-2.6,3.5-4.2,3.5c-1.7,0-2.9-0.7-4.2-3.5l-12.1-26.2c-0.2-0.3-0.3-0.5-0.6-0.5c-0.2,0-0.4,0.2-0.4,0.5v43.9h-3.4v-44.2
	c0-0.6,0.1-1,0.2-1.5c0.4-1.1,1.4-2,3.4-2c1.5,0,2.9,0.7,3.7,2.5l12.3,26.6c0.6,1.2,1.6,1.1,2.1,0l12.3-26.6
	c0.8-1.8,2.2-2.5,3.7-2.5c2,0,3,1,3.4,2c0.2,0.5,0.2,1,0.2,1.5l0,44.2h-3.4v-43.9c0-0.3-0.3-0.5-0.4-0.5
	C423.1,362.1,423,362.3,422.8,362.7L422.8,362.7z M466.7,359.1l3.7,0l-12.6,27.1c-0.8,1.7-1.8,2.5-2.5,3v17.2h-3.4v-17.3
	c-0.8-0.5-1.7-1.3-2.5-3l-12.6-27.1h3.7l12.1,26.1c0.5,1.2,1.6,1.1,2.1,0L466.7,359.1L466.7,359.1z M203.3,406.4l-3.7-14.4l-18.6,0
	l0.8-3.2h17c-2.3-9-4.8-19.1-5.3-21.4c-0.5-2.4-1.2-3.3-1.7-3.9c-1-1-2.2-1.5-3.6-1.5c-1.5,0-2.7,0.5-3.7,1.5
	c-0.5,0.5-1.2,1.5-1.7,3.9c-0.8,3.9-8.1,32.6-9.8,39h-3.4c1.5-5.7,9.2-35.7,10-39.6c0.5-2.5,1.3-4.2,2.6-5.5c1.6-1.6,3.6-2.5,6-2.5
	c2.3,0,4.3,0.8,6,2.5c1.3,1.3,2.1,3,2.6,5.5c0.8,3.8,8.6,33.7,10.1,39.6L203.3,406.4L203.3,406.4z M285.9,406.4l-3.5-14.4l-18.6,0
	l0.8-3.2h17c-2.3-9-4.8-19.1-5.3-21.4c-0.5-2.4-1.2-3.3-1.7-3.9c-1-1-2.2-1.5-3.6-1.5c-1.5,0-2.6,0.5-3.6,1.5
	c-0.5,0.5-1.2,1.5-1.7,3.9c-0.8,3.9-8.1,32.6-9.8,39h-3.5c1.5-5.7,9.2-35.7,10-39.6c0.5-2.5,1.3-4.2,2.6-5.5c1.6-1.6,3.6-2.5,6-2.5
	c2.3,0,4.4,0.8,6,2.5c1.3,1.3,2.1,3,2.6,5.5c0.8,3.8,8.6,33.7,10.1,39.6L285.9,406.4L285.9,406.4z M373.1,359.1v3.2h-25.2v40.9h25.2
	v3.2h-28.6v-47.3C344.5,359.1,373.1,359.1,373.1,359.1z M351.3,384.2V381h18v3.2H351.3z M237,403.2h5.1v3.2h-4.6
	c-1.9,0-4.6-0.1-6.3-0.3c-5.7-0.8-10-3-13.8-7c-3.9-4.1-6.1-9.7-6.2-15.8h0v-1.1h0c0.1-6.1,2.3-11.7,6.2-15.8c3.8-4,8.1-6.2,13.8-7
	c1.7-0.2,4.3-0.4,6.2-0.4h4.6v3.2h-5.1c-1.5,0-3.2,0.1-4.5,0.2c-5.2,0.6-9.1,2.6-12.5,6.2c-3.4,3.5-5.2,8.4-5.2,13.8h0v0.5h0v0.1
	c0,5.4,1.8,10.3,5.2,13.9c3.4,3.6,7.3,5.5,12.5,6.1C233.7,403.1,235.5,403.2,237,403.2L237,403.2z M299.8,359.1h8.4
	c1.9,0,4.6,0.1,6.2,0.4c5.7,0.8,10,3.1,13.8,7c3.9,4.1,6.1,9.7,6.2,15.8h0v1.1h0c-0.1,6.1-2.3,11.7-6.2,15.8c-3.8,4-8.1,6.2-13.8,7
	c-1.7,0.2-4.2,0.3-6.1,0.3h-0.9v-3.2h1.2c1.5,0,3.3-0.1,4.6-0.2c5.2-0.6,9.1-2.5,12.5-6.1c3.4-3.5,5.2-8.5,5.2-13.9v-0.1h0v-0.5h0
	c0-5.4-1.8-10.2-5.2-13.8c-3.4-3.6-7.3-5.5-12.5-6.2c-1.3-0.2-3-0.2-4.5-0.2h-5.6l0,44.1h-3.3L299.8,359.1L299.8,359.1z"/>
</svg>
