<?xml version="1.0" standalone="no"?>
<!DOCTYPE svg PUBLIC "-//W3C//DTD SVG 20010904//EN"
 "http://www.w3.org/TR/2001/REC-SVG-20010904/DTD/svg10.dtd">
<svg version="1.0" xmlns="http://www.w3.org/2000/svg"
 width="411.000000pt" height="165.000000pt" viewBox="0 0 411.000000 165.000000"
 preserveAspectRatio="xMidYMid meet">

<g transform="translate(0.000000,165.000000) scale(0.100000,-0.100000)"
fill="#000000" stroke="none">
<path d="M1983 1484 l-53 -35 0 -69 0 -69 51 31 50 32 -23 19 c-30 25 -8 13
74 -40 36 -24 72 -43 80 -43 7 0 37 15 65 33 l53 33 -119 72 c-66 40 -121 72
-122 71 -2 0 -28 -16 -56 -35z"/>
<path d="M2165 1130 l-110 -67 -3 -73 -3 -73 23 15 c13 8 63 39 112 69 48 29
90 59 93 65 2 6 3 38 1 70 l-3 60 -110 -66z"/>
<path d="M1810 1171 c0 -6 5 -13 10 -16 8 -5 7 -12 -2 -23 -10 -14 -10 -15 2
-4 21 18 35 15 19 -5 -10 -11 -10 -14 -1 -9 7 4 12 1 12 -8 0 -8 -12 -22 -26
-29 -21 -11 -24 -16 -13 -22 8 -5 60 -37 117 -72 l103 -64 -3 73 -3 72 -57 34
c-54 32 -58 33 -81 17 -22 -14 -25 -14 -30 0 -4 8 -2 15 4 15 6 0 1 11 -12 25
-25 26 -39 31 -39 16z"/>
<path d="M407 743 c-4 -3 -7 -51 -7 -105 l0 -98 65 0 c37 0 65 4 65 10 0 6
-25 10 -56 10 l-55 0 3 38 3 37 55 6 55 5 -55 5 -55 4 0 35 0 35 53 3 c28 2
52 7 52 13 0 10 -113 13 -123 2z"/>
<path d="M767 744 c-4 -4 -7 -52 -7 -106 l0 -98 65 0 c37 0 65 4 65 10 0 6
-25 10 -56 10 l-55 0 3 38 3 37 55 6 55 5 -55 5 -55 4 0 35 0 35 53 3 c28 2
52 7 52 11 0 10 -114 14 -123 5z"/>
<path d="M1192 733 c-22 -41 -71 -193 -62 -193 5 0 14 9 20 20 16 30 102 29
123 -2 29 -44 25 -12 -12 86 -37 101 -52 121 -69 89z m41 -66 c9 -30 17 -57
17 -60 0 -4 -20 -7 -44 -7 l-45 0 22 60 c12 33 25 60 28 60 3 0 13 -24 22 -53z"/>
<path d="M1390 743 c0 -5 13 -28 29 -52 17 -25 27 -49 24 -55 -4 -6 -19 -30
-35 -53 -18 -27 -24 -43 -16 -43 7 0 26 21 42 46 33 52 26 54 82 -22 36 -48
36 -21 0 32 l-33 49 29 43 c16 23 28 48 26 54 -3 7 -19 -9 -37 -35 -17 -26
-34 -47 -36 -47 -2 0 -16 20 -31 45 -23 40 -44 58 -44 38z"/>
<path d="M1580 645 c0 -63 4 -105 10 -105 6 0 10 18 10 40 l0 40 45 0 c51 0
85 25 85 63 0 44 -22 60 -89 64 l-61 3 0 -105z m118 73 c7 -7 12 -21 12 -33 0
-32 -20 -45 -67 -45 l-43 0 0 45 0 45 43 0 c24 0 48 -5 55 -12z"/>
<path d="M1760 645 c0 -96 2 -105 19 -105 13 0 35 27 72 91 l54 90 3 -90 c4
-126 22 -116 22 12 0 135 -12 136 -88 8 l-57 -96 -3 98 c-4 132 -22 125 -22
-8z"/>
<path d="M2010 743 c-30 -11 -40 -37 -40 -104 0 -83 13 -99 78 -99 26 0 52 4
58 8 16 10 27 49 15 56 -5 3 -12 -5 -15 -18 -9 -37 -86 -46 -108 -12 -15 22
-9 124 8 140 28 28 94 18 94 -15 0 -10 5 -19 10 -19 6 0 10 11 10 25 0 36 -59
56 -110 38z"/>
<path d="M2140 740 c0 -5 15 -10 33 -12 l32 -3 3 -92 c4 -123 22 -121 22 2 l0
95 30 0 c17 0 30 4 30 9 0 5 -34 10 -75 10 -41 0 -75 -4 -75 -9z"/>
<path d="M2351 738 c-31 -16 -43 -59 -37 -122 7 -66 18 -76 82 -76 72 0 88 23
82 115 -2 36 -9 70 -15 76 -17 17 -85 21 -112 7z m93 -24 c17 -17 22 -118 8
-142 -13 -20 -74 -26 -97 -9 -17 13 -20 27 -20 82 0 47 5 69 15 75 23 15 77
12 94 -6z"/>
<path d="M2605 738 c-4 -10 -17 -18 -29 -18 -42 0 -66 -27 -66 -75 0 -51 19
-75 61 -75 19 0 29 -5 29 -15 0 -8 5 -15 10 -15 6 0 10 7 10 15 0 10 10 15 28
15 47 0 67 22 67 75 0 53 -20 75 -66 75 -18 0 -29 6 -32 18 -4 16 -4 16 -12 0z
m-5 -94 l0 -55 -32 3 c-30 3 -33 6 -36 41 -4 45 11 67 44 67 22 0 24 -4 24
-56z m91 29 c16 -42 -1 -77 -39 -81 l-32 -3 0 55 c0 56 0 56 30 56 24 0 33 -6
41 -27z"/>
<path d="M2780 738 c-42 -22 -51 -146 -14 -183 21 -20 107 -20 128 1 20 20 22
142 3 168 -16 22 -85 31 -117 14z m91 -18 c16 -9 19 -22 19 -73 0 -34 -5 -69
-10 -77 -11 -18 -84 -20 -102 -2 -17 17 -16 125 1 146 15 18 63 21 92 6z"/>
<path d="M2950 645 c0 -63 4 -105 10 -105 6 0 10 18 10 40 l0 40 41 0 c63 0
79 13 79 66 0 39 -3 46 -26 54 -14 6 -45 10 -70 10 l-44 0 0 -105z m108 76 c8
-5 12 -22 10 -42 -3 -33 -5 -34 -50 -37 l-48 -3 0 45 0 46 38 0 c20 0 43 -4
50 -9z"/>
<path d="M3153 739 c-25 -13 -33 -36 -33 -104 0 -74 18 -95 84 -95 70 0 81 14
81 101 0 49 -4 73 -16 84 -20 21 -87 28 -116 14z m96 -18 c9 -6 16 -32 19 -69
4 -51 1 -63 -17 -81 -25 -25 -58 -27 -89 -5 -18 13 -22 25 -22 74 0 40 5 64
16 74 17 17 71 21 93 7z"/>
<path d="M3320 645 l0 -105 63 0 c36 0 68 5 75 12 14 14 16 74 2 83 -6 4 -5
15 2 30 6 13 8 35 4 48 -6 27 -37 37 -107 37 l-39 0 0 -105z m118 73 c33 -33
1 -68 -62 -68 -35 0 -36 1 -36 40 l0 40 43 0 c24 0 48 -5 55 -12z m0 -87 c8
-5 12 -21 10 -37 -3 -27 -6 -29 -55 -32 l-53 -3 0 40 0 41 43 0 c23 0 48 -4
55 -9z"/>
<path d="M3542 663 c-17 -48 -34 -96 -37 -105 -5 -11 -2 -18 5 -18 6 0 14 9
17 20 5 17 14 20 60 20 46 0 56 -3 60 -20 3 -11 11 -20 18 -20 18 0 -58 204
-77 208 -11 2 -24 -23 -46 -85z m63 20 c33 -79 32 -83 -18 -83 l-46 0 21 60
c11 33 22 60 24 60 2 0 11 -17 19 -37z"/>
<path d="M580 650 c0 -73 -3 -90 -15 -90 -8 0 -15 -4 -15 -10 0 -5 9 -10 20
-10 24 0 29 19 32 115 l3 70 48 3 47 3 0 -95 c0 -57 4 -96 10 -96 6 0 10 40
10 100 l0 100 -70 0 -70 0 0 -90z"/>
<path d="M930 640 c0 -60 4 -100 10 -100 6 0 10 20 10 45 0 47 -1 47 60 47 61
0 60 0 60 -47 0 -25 5 -45 10 -45 6 0 10 40 10 100 0 60 -4 100 -10 100 -5 0
-10 -20 -10 -45 l0 -45 -60 0 -60 0 0 45 c0 25 -4 45 -10 45 -6 0 -10 -40 -10
-100z"/>
<path d="M1281 293 c-1 -24 1 -43 3 -43 8 0 12 48 5 66 -5 13 -8 7 -8 -23z"/>
<path d="M1337 293 c5 -50 13 -55 11 -9 -1 20 -4 39 -8 41 -4 3 -5 -12 -3 -32z"/>
<path d="M1637 323 c-9 -9 -9 -61 1 -66 4 -3 7 12 7 34 0 21 0 39 -1 39 0 0
-4 -3 -7 -7z"/>
<path d="M1753 290 c0 -25 2 -35 4 -22 2 12 2 32 0 45 -2 12 -4 2 -4 -23z"/>
<path d="M1833 290 c0 -25 2 -35 4 -22 2 12 2 32 0 45 -2 12 -4 2 -4 -23z"/>
<path d="M1893 290 c0 -25 2 -35 4 -22 2 12 2 32 0 45 -2 12 -4 2 -4 -23z"/>
<path d="M2043 290 c0 -25 2 -35 4 -22 2 12 2 32 0 45 -2 12 -4 2 -4 -23z"/>
<path d="M2101 309 c-13 -11 -21 -22 -17 -26 3 -3 6 -3 6 2 0 5 12 -2 28 -16
l27 -24 -22 25 c-21 24 -22 27 -6 43 23 23 13 21 -16 -4z"/>
<path d="M2172 293 c-2 -47 11 -56 28 -20 10 21 10 21 -4 3 -14 -17 -15 -15
-19 20 l-4 39 -1 -42z"/>
<path d="M2216 314 c-5 -14 -4 -15 9 -4 17 14 19 20 6 20 -5 0 -12 -7 -15 -16z"/>
<path d="M2473 290 c0 -25 2 -35 4 -22 2 12 2 32 0 45 -2 12 -4 2 -4 -23z"/>
<path d="M2532 293 c-2 -41 9 -56 24 -31 4 6 3 8 -4 4 -7 -4 -12 7 -15 31 l-4
38 -1 -42z"/>
<path d="M2583 318 c-20 -26 -24 -42 -5 -18 l21 25 4 -40 4 -40 1 43 c2 42 -7
53 -25 30z"/>
<path d="M2643 290 c0 -25 2 -35 4 -22 2 12 2 32 0 45 -2 12 -4 2 -4 -23z"/>
<path d="M2733 315 c-3 -9 -3 -18 -1 -21 3 -3 8 4 11 16 6 23 -1 27 -10 5z"/>
<path d="M2790 310 c0 -13 -7 -20 -20 -20 -11 0 -20 -2 -20 -4 0 -2 -3 -13 -6
-23 -5 -17 -5 -17 6 0 6 9 17 17 25 17 7 0 16 -8 18 -17 3 -10 5 1 6 25 0 23
-1 42 -4 42 -3 0 -5 -9 -5 -20z"/>
<path d="M1372 290 c0 -14 2 -19 5 -12 2 6 2 18 0 25 -3 6 -5 1 -5 -13z"/>
</g>
</svg>
